<svg version="1.1" id="Layer_1" xmlns="http://www.w3.org/2000/svg" xmlns:xlink="http://www.w3.org/1999/xlink" x="0px" y="0px"
	 width="100%" viewBox="0 0 336 336" enable-background="new 0 0 336 336" xml:space="preserve">
<path fill="#000000" opacity="1.000000" stroke="none" 
	d="
M157.000000,337.000000 
	C104.666679,337.000000 52.833351,337.000000 1.000021,337.000000 
	C1.000014,225.000031 1.000014,113.000061 1.000007,1.000066 
	C112.999947,1.000044 224.999893,1.000044 336.999878,1.000022 
	C336.999939,112.999931 336.999939,224.999863 336.999969,336.999878 
	C277.166656,337.000000 217.333328,337.000000 157.000000,337.000000 
M159.000000,111.512009 
	C159.000000,115.754013 159.000000,119.996025 159.000000,124.507233 
	C173.349442,124.507233 186.970383,124.507233 201.138687,124.507233 
	C201.138687,162.829819 201.138687,200.867569 201.138687,238.850830 
	C210.999008,238.850830 220.304840,238.850830 230.127960,238.850830 
	C230.127960,200.718262 230.127960,162.730087 230.127960,124.290054 
	C244.205627,124.290054 257.936584,124.290054 271.683990,124.290054 
	C271.683990,115.772774 271.683990,107.714539 271.683990,99.698257 
	C233.976303,99.698257 196.585693,99.698257 159.000000,99.698257 
	C159.000000,103.535698 159.000000,107.029182 159.000000,111.512009 
M87.420815,99.353142 
	C80.351601,99.353142 73.282394,99.353142 66.338058,99.353142 
	C66.338058,146.290665 66.338058,192.549789 66.338058,238.701080 
	C99.331558,238.701080 132.069168,238.701080 164.624756,238.701080 
	C164.624756,230.186050 164.624756,221.974365 164.624756,213.491806 
	C141.637390,213.491806 119.024414,213.491806 95.868149,213.491806 
	C95.868149,175.346283 95.868149,137.484177 95.868149,99.353149 
	C93.012962,99.353149 90.702179,99.353149 87.420815,99.353142 
z"/>
<path fill="#FFFFFF" opacity="1.000000" stroke="none" 
	d="
M159.000000,111.017334 
	C159.000000,107.029182 159.000000,103.535698 159.000000,99.698257 
	C196.585693,99.698257 233.976303,99.698257 271.683990,99.698257 
	C271.683990,107.714539 271.683990,115.772774 271.683990,124.290054 
	C257.936584,124.290054 244.205627,124.290054 230.127960,124.290054 
	C230.127960,162.730087 230.127960,200.718262 230.127960,238.850830 
	C220.304840,238.850830 210.999008,238.850830 201.138687,238.850830 
	C201.138687,200.867569 201.138687,162.829819 201.138687,124.507233 
	C186.970383,124.507233 173.349442,124.507233 159.000000,124.507233 
	C159.000000,119.996025 159.000000,115.754013 159.000000,111.017334 
z"/>
<path fill="#FFFFFF" opacity="1.000000" stroke="none" 
	d="
M87.906113,99.353149 
	C90.702179,99.353149 93.012962,99.353149 95.868149,99.353149 
	C95.868149,137.484177 95.868149,175.346283 95.868149,213.491806 
	C119.024414,213.491806 141.637390,213.491806 164.624756,213.491806 
	C164.624756,221.974365 164.624756,230.186050 164.624756,238.701080 
	C132.069168,238.701080 99.331558,238.701080 66.338058,238.701080 
	C66.338058,192.549789 66.338058,146.290665 66.338058,99.353142 
	C73.282394,99.353142 80.351601,99.353142 87.906113,99.353149 
z"/>
</svg>